<?xml version="1.0" encoding="UTF-8" standalone="no"?>
<!-- Created with Inkscape (http://www.inkscape.org/) -->
<svg
    xmlns:inkscape="http://www.inkscape.org/namespaces/inkscape"
    xmlns:rdf="http://www.w3.org/1999/02/22-rdf-syntax-ns#"
    xmlns="http://www.w3.org/2000/svg"
    xmlns:xlink="http://www.w3.org/1999/xlink"
    xmlns:ns1="http://sozi.baierouge.fr"
    xmlns:cc="http://creativecommons.org/ns#"
    xmlns:dc="http://purl.org/dc/elements/1.1/"
    xmlns:sodipodi="http://sodipodi.sourceforge.net/DTD/sodipodi-0.dtd"
    id="svg15626"
    sodipodi:docname="New document 9"
    viewBox="0 0 65.341 65.205"
    version="1.1"
    inkscape:version="0.48.4 r9939"
  >
  <g
      id="layer1"
      inkscape:label="Layer 1"
      inkscape:groupmode="layer"
      transform="translate(-342.33 -499.76)"
    >
    <g
        id="g9558"
        style="enable-background:new;fill:#b85e53"
        transform="matrix(.57805 0 0 .57805 14.453 371.48)"
      >
      <path
          id="path4063-4"
          style="fill:#ff6f28"
          inkscape:connector-curvature="0"
          d="m616.84 334.34c-1.1933-0.5778-1.5471-1.8215-1.2986-4.5642l0.22459-2.4784-3.0526-0.66171c-1.679-0.36391-3.1979-0.66301-3.3755-0.66466-0.17758-0.009-0.694 0.92602-1.1476 2.0616-0.45359 1.1355-1.1482 2.4129-1.5436 2.8388-0.90834 0.97825-2.4351 1.0026-3.3838 0.0538-0.86196-0.86198-0.78571-2.6613 0.22081-5.2089l0.64315-1.628-0.77893-0.72566c-1.0945-1.0197-0.91241-2.9208 0.37129-3.8751l0.9403-0.6992 3.705 1.2438c4.682 1.5718 8.0309 2.2533 12.518 2.5473 3.0607 0.20061 3.6545 0.3404 4.3347 1.0206 0.95673 0.95674 1.0101 2.1896 0.14126 3.2626-0.48164 0.59481-1.1185 0.84627-2.4929 0.98441l-1.846 0.18552-0.40611 2.7527c-0.22335 1.5141-0.41773 2.7875-0.43195 2.8299-0.057 0.17024-2.0747 1.1257-2.3314 1.1039-0.15138-0.0122-0.60593-0.18344-1.0101-0.37919zm0.96767-13.731c-13.729-1.7817-26.165-10.653-32.595-23.252-3.188-6.2472-4.4567-11.78-4.4464-19.39 0.008-5.9059 0.52169-9.0484 2.306-14.108 6.02-17.07 22.246-28.565 40.311-28.559 23.791 0.009 42.871 19.088 42.88 42.88 0.005 14.357-7.1111 27.581-19.2 35.682-8.2478 5.5267-19.199 8.0524-29.255 6.7473zm10.801-5.1608c15.062-2.095 27.228-12.845 31.37-27.719 0.8792-3.1574 0.94465-3.8446 0.92971-9.7622-0.0137-5.4463-0.12404-6.7549-0.76382-9.0601-2.4715-8.9049-7.2513-16.008-14.33-21.295-11.874-8.868-29.051-9.6754-41.747-1.9622-18.585 11.291-23.924 35.325-11.898 53.556 1.8777 2.8465 6.6294 7.671 9.5139 9.6594 8.0988 5.5833 17.533 7.89 26.925 6.5837zm18.023 4.4786c-0.51113-0.51117-0.67846-1.0563-0.60217-1.9618 0.095-1.1272 0.36654-1.4384 2.6864-3.0776 8.4482-5.9699 14.332-13.928 17.341-23.454 2.5874-8.1904 2.6021-18.254 0.0392-26.714-0.79864-2.6364-3.233-7.8792-5.2026-11.205-1.1432-1.9302-0.95965-3.153 0.59384-3.9564 1.5209-0.78645 2.611-0.21488 4.1564 2.1794 1.0902 1.689 3.3729 6.2945 4.6756 9.433l0.38378 0.92465 2.4572-0.69535c2.8262-0.79976 4.0798-0.53989 4.7771 0.99042 0.69367 1.5225-0.062 2.6999-2.2605 3.5225-1.0275 0.38444-2.0559 0.70138-2.2854 0.7042-1.2043 0.0149-1.2923 0.4724-0.76468 3.973 0.2835 1.8808 0.51638 5.5489 0.51749 8.1511 0 2.6023 0.0407 4.7368 0.088 4.7434 3.8827 0.54177 5.6672 1.076 6.3909 1.9131 0.94325 1.0909 0.79793 2.3633-0.38391 3.3619-0.77155 0.65192-2.0388 0.6538-5.8106 0.009-1.259-0.21527-1.2682-0.20814-1.6467 1.287-1.6634 6.5703-4.5716 12.535-9.1676 18.802-0.56157 0.76575-0.52975 0.82276 1.5382 2.7604 2.4045 2.2528 2.7411 3.4886 1.3153 4.8282-1.2578 1.1816-2.3521 0.95083-4.5953-0.96932-1.1036-0.94458-2.1315-1.7188-2.2843-1.7205-0.15281 0-1.3916 0.93695-2.7528 2.0858-5.4199 4.5744-7.7022 5.5875-9.2044 4.0853zm-55.935-4.4292-1.9876-1.6962-1.3343 1.0939c-1.8988 1.5568-2.7345 1.9684-3.5206 1.7339-1.246-0.37164-1.8925-1.2172-1.8925-2.4757 0-0.9996 0.2802-1.4739 1.5926-2.6961 1.5482-1.4417 1.5767-1.5049 1.022-2.2607-0.31385-0.4276-1.5889-2.2946-2.8335-4.1489s-2.3648-3.3252-2.4894-3.2689c-0.12461 0.0564-1.352 0.55481-2.7275 1.1075l-2.5009 1.0051-0.93501-0.69494c-1.0244-0.76142-1.3916-2.3772-0.79401-3.4937 0.19483-0.36418 1.3654-1.1025 2.6014-1.6409 1.2359-0.5384 2.247-1.1496 2.247-1.3582s-0.39145-1.5291-0.86991-2.9343c-1.5278-4.4875-2.2535-8.7511-2.4669-14.496l-0.20074-5.4028-0.89799-0.16666c-0.49389-0.0916-1.6292-0.26293-2.523-0.38044-1.1789-0.15523-1.8164-0.45735-2.3226-1.1009-0.89073-1.1323-0.88037-1.8454 0.0438-3.0204 0.72116-0.9168 0.82208-0.93922 3.6861-0.82054l2.9446 0.12198 0.81101-3.0969c0.96265-3.6759 3.5425-9.9417 4.634-11.255 1.0848-1.305 2.3008-1.52 3.4564-0.61099 1.2245 0.96313 1.2082 2.218-0.0616 4.7356-1.3757 2.7276-2.9358 7.2663-3.6927 10.743-0.89792 4.1246-0.89792 13.768 0 17.893 2.0065 9.2169 6.2451 16.811 13.151 23.561 2.7376 2.676 3.2338 3.3285 3.2338 4.2519 0 1.3733-1.0556 2.4672-2.3808 2.4672-0.70519 0-1.5966-0.50526-2.9921-1.696zm0.55554-70.12c-1.1069-0.40696-1.7205-1.2683-1.7205-2.4151 0-1.1903 0.17811-1.4055 3.5343-4.2693l0.95364-0.81366-1.3836-2.2366c-1.603-2.5914-1.7073-3.493-0.53935-4.6609 1.5113-1.5113 2.6589-1.0401 4.6666 1.9164 0.76802 1.1309 1.471 2.0563 1.5622 2.0563s1.75-0.75941 3.6862-1.6876c3.2578-1.5617 7.418-3.0506 10.168-3.6386l1.1416-0.24414-0.23533-3.0081c-0.23401-2.9916-0.23013-3.012 0.71132-3.7526 2.0662-1.6252 3.6555-0.40558 4.2776 3.2826l0.40806 2.4192 6.0843 0.19497c3.7686 0.12081 7.0666 0.41629 8.6651 0.77634 1.4194 0.31971 2.8076 0.60095 3.085 0.62492 0.32373 0.0279 0.79208-0.7545 1.308-2.1854 1.0002-2.774 1.5937-3.4486 3.0339-3.4486 2.239 0 2.9049 1.6364 1.8772 4.6132-0.3859 1.1179-0.70164 2.2082-0.70164 2.4231 0 0.21487 1.742 1.2732 3.8711 2.3519 5.3472 2.7091 7.2821 4.2177 7.4148 5.7813 0.12308 1.4504-0.82504 2.4962-2.2578 2.4904-0.51931-0.004-1.9452-0.6556-3.1785-1.4567-11.044-7.174-25.746-9.0371-38.251-4.8474-5.0474 1.691-10.367 4.6176-14.396 7.9202-1.4052 1.1518-2.8815 2.1006-3.1603 2.0309-0.0597-0.015-0.34089-0.11259-0.62477-0.21695z"
      />
    </g>
  </g>
</svg>
